<svg width="25" height="24" viewBox="0 0 25 24" fill="none" xmlns="http://www.w3.org/2000/svg">
<path d="M1.95312 9.50943C1.95312 11.4541 2.97987 13.1737 4.55225 14.2165L11.2582 19.8334C12.0549 20.5007 13.2451 20.4918 14.0308 19.8126L20.775 13.9838C22.1611 12.9278 23.0469 11.3158 23.0469 9.50943C23.0469 6.3286 20.2999 3.75 16.9113 3.75C15.1796 3.75 13.6156 4.42331 12.5 5.50623C11.3844 4.42331 9.82037 3.75 8.08882 3.75C4.70017 3.75 1.95312 6.3286 1.95312 9.50943Z" fill="#FF4B4B" stroke="white" stroke-width="2"/>
<path opacity="0.3" fill-rule="evenodd" clip-rule="evenodd" d="M7.83971 11.9921C9.19434 11.9921 10.2925 10.9068 10.2925 9.56794C10.2925 8.22909 9.19434 7.1438 7.83971 7.1438C6.4851 7.1438 5.38696 8.22909 5.38696 9.56794C5.38696 10.9068 6.4851 11.9921 7.83971 11.9921Z" fill="white"/>
</svg>
