<svg width="19" height="23" viewBox="0 0 19 23" fill="none" xmlns="http://www.w3.org/2000/svg">
<g clip-path="url(#clip0_92_558)">
<path d="M2.47036 4.95244C1.42855 5.56132 0.791748 6.65379 0.791748 7.83218V15.243C0.791748 16.4214 1.42855 17.5139 2.47036 18.1228L7.59613 21.1184C8.69979 21.7635 10.0816 21.7635 11.1853 21.1185L16.3113 18.1228C17.3532 17.5139 17.99 16.4214 17.99 15.2429V7.83225C17.99 6.6538 17.3532 5.56131 16.3113 4.95244L11.1853 1.95668C10.0816 1.31167 8.69979 1.31168 7.59613 1.95672L2.47036 4.95244Z" fill="#1CB0F6" stroke="white" stroke-width="2"/>
<path fill-rule="evenodd" clip-rule="evenodd" d="M8.11063 4.18075C8.68032 3.84187 9.41316 4.23883 9.41316 4.88628V7.31288C9.41316 7.60266 9.25673 7.87138 9.0007 8.02134L6.66746 9.38823C6.37764 9.55797 6.01164 9.54609 5.73425 9.35779L3.8453 8.07593C3.34146 7.73399 3.36423 7.00416 3.88846 6.69232L8.11063 4.18075Z" fill="#DDF4FF"/>
</g>
<defs>
<clipPath id="clip0_92_558">
<rect width="19" height="23" fill="white"/>
</clipPath>
</defs>
</svg>
