<svg width="36" height="36" viewBox="0 0 36 36" fill="none" xmlns="http://www.w3.org/2000/svg">
<g clip-path="url(#clip0_70_238)">
<path d="M26.6232 20.7477C29.5051 15.053 27.225 8.10022 21.5303 5.21826C15.8356 2.33629 8.88282 4.61646 6.00086 10.3112C3.11889 16.0059 5.39906 22.9586 11.0938 25.8406C16.7885 28.7225 23.7412 26.4424 26.6232 20.7477Z" fill="#84D8FF"/>
<path d="M28.0292 21.4593C31.2928 15.0105 28.7309 7.14201 22.309 3.84651L22.2418 3.81249C21.7241 3.55049 21.5168 2.91843 21.7788 2.40072C22.0407 1.88304 22.6728 1.67575 23.1905 1.9377L23.2843 1.98517C30.7222 5.81272 33.687 14.9327 29.9039 22.4081C27.751 26.6621 23.8748 29.4707 19.5537 30.4145V32.9503H21.4604C21.987 32.9503 22.4139 33.3771 22.4139 33.9037C22.4139 34.4302 21.987 34.8572 21.4604 34.8572H14.7863C14.2597 34.8572 13.8329 34.4302 13.8329 33.9037C13.8329 33.3771 14.2597 32.9503 14.7863 32.9503H16.6933V30.7611C14.2864 30.8234 11.8304 30.3147 9.52728 29.1686L9.43336 29.1215C8.91567 28.8596 8.70835 28.2274 8.97037 27.7097C9.23231 27.192 9.86442 26.9848 10.3821 27.2468C16.8534 30.5217 24.7542 27.9306 28.0292 21.4593Z" fill="#FF9600"/>
<path fill-rule="evenodd" clip-rule="evenodd" d="M17.1696 27.0556C15.1394 27.2086 13.0428 26.827 11.0937 25.8406C10.157 25.3665 9.31253 24.7822 8.56835 24.1115C8.49079 23.5521 8.57774 22.9641 8.85361 22.4227C9.57079 21.0152 11.2932 20.4555 12.7008 21.1727L16.0988 22.9041C17.5064 23.6213 18.066 25.3437 17.3488 26.7513C17.2947 26.8576 17.2347 26.9591 17.1696 27.0556ZM27.6785 13.4396C28.1217 15.8406 27.8107 18.401 26.6231 20.7477C25.9137 22.1495 24.9575 23.3445 23.8341 24.3065L22.8442 23.8021C20.0291 22.3677 18.9098 18.9229 20.3442 16.1078C21.7179 13.4116 24.9358 12.2711 27.6785 13.4396ZM19.0338 4.29547C20.6517 5.14212 21.2903 7.1357 20.4592 8.76678C19.6225 10.4089 17.613 11.0619 15.9709 10.2252L15.8598 10.1686C15.818 11.0025 15.6036 11.8412 15.2 12.6333C13.6675 15.6409 9.98706 16.8367 6.97941 15.3043C6.14574 14.8795 5.45127 14.2897 4.91553 13.5949C5.10521 12.4796 5.46319 11.3735 6.00082 10.3112C8.47201 5.42822 13.9361 3.05574 19.0338 4.29547Z" fill="#58CC02"/>
</g>
<defs>
<clipPath id="clip0_70_238">
<rect width="36" height="36" fill="white"/>
</clipPath>
</defs>
</svg>
