<svg width="50" height="50" viewBox="0 0 50 50" fill="none" xmlns="http://www.w3.org/2000/svg">
<g clip-path="url(#clip0_48_15)">
<path d="M38.4143 39.4778C37.9504 41.913 35.8214 43.6748 33.3425 43.6748H16.6251C14.1461 43.6748 12.0171 41.913 11.5532 39.4778L7.78271 19.6826L24.8439 7.06601L42.1856 19.6783L38.4143 39.4778Z" fill="#0078B7"/>
<path opacity="0.5" fill-rule="evenodd" clip-rule="evenodd" d="M20.5559 36.1111C20.5559 35.1906 21.302 34.4444 22.2225 34.4444H28.8892C29.8097 34.4444 30.5559 35.1906 30.5559 36.1111C30.5559 37.0316 29.8097 37.7778 28.8892 37.7778H22.2225C21.302 37.7778 20.5559 37.0316 20.5559 36.1111Z" fill="#91E0EF"/>
<path d="M30.4352 25.4684C30.4352 28.47 28.0019 30.9031 25.0004 30.9031C21.9988 30.9031 19.5657 28.47 19.5657 25.4684C19.5657 22.4669 21.9988 20.0336 25.0004 20.0336C28.0019 20.0336 30.4352 22.4669 30.4352 25.4684Z" fill="#91E0EF"/>
<path d="M25.2632 4.44472C26.0048 4.44111 26.7551 4.66545 27.4001 5.13372L46.7898 19.1123C48.4032 20.2847 48.7609 22.543 47.5887 24.1564C46.4167 25.7694 44.1593 26.1273 42.5459 24.9561L25.2503 12.4873L7.95634 24.955L7.95498 24.9561C6.34161 26.127 4.08426 25.7692 2.91233 24.1561C1.74008 22.5427 2.09775 20.2844 3.71122 19.1122L3.7137 19.1103L23.0998 5.13431C23.7523 4.66064 24.5136 4.43576 25.2632 4.44472Z" fill="#033E8A"/>
</g>
<defs>
<clipPath id="clip0_48_15">
<rect width="50" height="50" fill="white"/>
</clipPath>
</defs>
</svg>
