<svg width="36" height="36" viewBox="0 0 36 36" fill="none" xmlns="http://www.w3.org/2000/svg">
<path d="M32.084 24.2619C32.084 20.8041 29.281 18.001 25.8232 18.001H23.4753V30.5228H25.8232C29.281 30.5228 32.084 27.7197 32.084 24.2619Z" fill="#CE82FF"/>
<path d="M3.91016 24.2619C3.91016 20.8041 6.71325 18.001 10.171 18.001H12.5189V30.5228H10.171C6.71325 30.5228 3.91016 27.7197 3.91016 24.2619Z" fill="#CE82FF"/>
<path fill-rule="evenodd" clip-rule="evenodd" d="M6.25798 18.001C6.25798 11.5177 11.5138 6.26189 17.9971 6.26189C24.4805 6.26189 29.7363 11.5177 29.7363 18.001V22.6967H25.8232V25.0445H29.7363H32.0841V22.6967V18.001C32.0841 10.221 25.7771 3.91406 17.9971 3.91406C10.2171 3.91406 3.91016 10.221 3.91016 18.001V22.6967V25.0445H6.25798H9.38843V22.6967H6.25798V18.001Z" fill="#CE82FF"/>
<path d="M8.60583 19.5662C8.60583 17.8374 10.0074 16.4358 11.7363 16.4358C13.4651 16.4358 14.8667 17.8374 14.8667 19.5662V28.9575C14.8667 30.6864 13.4651 32.088 11.7363 32.088C10.0074 32.088 8.60583 30.6864 8.60583 28.9575V19.5662Z" fill="#9069CD"/>
<path d="M21.1276 19.5662C21.1276 17.8374 22.5291 16.4358 24.258 16.4358C25.9869 16.4358 27.3884 17.8374 27.3884 19.5662V28.9575C27.3884 30.6864 25.9869 32.088 24.258 32.088C22.5291 32.088 21.1276 30.6864 21.1276 28.9575V19.5662Z" fill="#9069CD"/>
</svg>
