<svg width="36" height="36" viewBox="0 0 36 36" fill="none" xmlns="http://www.w3.org/2000/svg">
<path d="M31.3044 28.1739V13.3044H4.69568V28.1739C4.69568 29.9028 6.05718 31.3044 7.73667 31.3044H28.2634C29.9429 31.3044 31.3044 29.9028 31.3044 28.1739Z" fill="#A56644"/>
<path d="M3.13049 7.82608C3.13049 6.09719 4.53204 4.69565 6.26093 4.69565H13.3044V13.3043H3.13049V7.82608Z" fill="#EA2B2B"/>
<path d="M3.13049 13.3044H13.3044V13.6957C13.3044 16.5051 11.0269 18.7826 8.21745 18.7826C5.408 18.7826 3.13049 16.5051 3.13049 13.6957V13.3044Z" fill="#FF4945"/>
<path d="M13.3043 13.3044H22.6956V13.6957C22.6956 16.5051 20.5933 18.7826 18 18.7826C15.4066 18.7826 13.3043 16.5051 13.3043 13.6957V13.3044Z" fill="white"/>
<path d="M22.6957 13.3044H32.8696V13.6957C32.8696 16.5051 30.5921 18.7826 27.7826 18.7826C24.9731 18.7826 22.6957 16.5051 22.6957 13.6957V13.3044Z" fill="#FF4945"/>
<path d="M13.3043 4.69565H22.6956V13.3043H13.3043V4.69565Z" fill="#D0D0D0"/>
<path d="M22.6957 4.69565H29.7392C31.468 4.69565 32.8696 6.09719 32.8696 7.82608V13.3043H22.6957V4.69565Z" fill="#EA2B2B"/>
<path d="M8.60864 23.4783C8.60864 22.6138 9.30939 21.913 10.1739 21.913H14.0869C14.9514 21.913 15.6521 22.6138 15.6521 23.4783V31.3043H8.60864V23.4783Z" fill="#B9E8FF"/>
<path d="M18.7826 23.4783C18.7826 22.6138 19.4833 21.913 20.3478 21.913H26.6087C27.4731 21.913 28.1739 22.6138 28.1739 23.4783V26.6087C28.1739 27.4732 27.4731 28.1739 26.6087 28.1739H20.3478C19.4833 28.1739 18.7826 27.4732 18.7826 26.6087V23.4783Z" fill="#B9E8FF"/>
</svg>
